<svg version="1.1" viewBox="0.0 0.0 960.0 960.0" fill="none" stroke="none" stroke-linecap="square" stroke-miterlimit="10" xmlns:xlink="http://www.w3.org/1999/xlink" xmlns="http://www.w3.org/2000/svg"><clipPath id="p.0"><path d="m0 0l960.0 0l0 960.0l-960.0 0l0 -960.0z" clip-rule="nonzero"/></clipPath><g clip-path="url(#p.0)"><path fill="#000000" fill-opacity="0.0" d="m0 0l960.0 0l0 960.0l-960.0 0z" fill-rule="evenodd"/><path fill="#d9d2e9" d="m191.10786 614.23486l0 0c0 -102.74237 129.34389 -186.03152 288.89764 -186.03152l0 0c159.55377 0 288.89764 83.289154 288.89764 186.03152l0 0c0 102.74237 -129.34387 186.0315 -288.89764 186.0315l0 0c-159.55374 0 -288.89764 -83.28912 -288.89764 -186.0315z" fill-rule="evenodd"/><path fill="#8e7cc3" d="m892.7178 384.05316c13.83905 6.859833 -21.046448 135.82373 -39.78705 174.51227c-18.7406 38.688538 -58.817566 64.4787 -72.65662 57.618896c-13.83905 -6.8598022 -29.118347 -60.089294 -10.377747 -98.77783c18.740662 -38.688507 108.98236 -140.21317 122.82141 -133.35333z" fill-rule="evenodd"/><path fill="#8e7cc3" d="m67.28229 375.698c-13.839058 6.859833 21.046417 135.82376 39.787033 174.51227c18.740608 38.688538 58.81758 64.47876 72.65665 57.618896c13.83905 -6.8598022 29.118317 -60.089294 10.377701 -98.7778c-18.7406 -38.688538 -108.98232 -140.21317 -122.82138 -133.35336z" fill-rule="evenodd"/><path fill="#b4a7d6" d="m496.75 332.71472c-28.254303 -29.634247 -131.18219 32.10263 -179.90671 51.035522c-48.72455 18.932861 -69.77045 67.7749 -112.44052 62.561676c-42.670074 -5.2132263 -126.28115 -96.58487 -143.57997 -93.841034c-17.298824 2.7438354 24.506184 76.55426 39.78703 110.304016c15.280853 33.749725 43.24839 65.03009 51.898064 92.1944c8.649673 27.164368 -5.766098 53.779846 0 70.79169c5.766098 17.01184 24.794006 26.066101 34.59659 31.279358c9.802582 5.213196 18.741135 8.50592 24.218887 0c5.4777374 -8.50592 -6.6327667 -34.02368 8.6475525 -51.035522c15.280319 -17.01184 58.52765 -37.59076 83.03436 -51.035522c24.506714 -13.444702 49.87903 -12.346436 64.00592 -29.63269c14.126892 -17.286285 7.781433 -67.49951 20.755402 -74.0849c12.973999 -6.585388 40.654755 16.188538 57.0885 34.57254c16.433746 18.384003 32.86487 101.249725 41.514008 75.731476c8.649139 -25.51825 38.635162 -199.20676 10.38089 -228.841z" fill-rule="evenodd"/><path fill="#b4a7d6" d="m463.25 332.71472c28.254303 -29.634247 131.18219 32.10263 179.90668 51.035522c48.72455 18.932861 69.77045 67.7749 112.44055 62.561676c42.670044 -5.2132263 126.28113 -96.58487 143.57996 -93.841034c17.298828 2.7438354 -24.506165 76.55426 -39.78705 110.304016c-15.280823 33.749725 -43.248352 65.03009 -51.89807 92.1944c-8.649658 27.164368 5.7661133 53.779846 0 70.79169c-5.7660522 17.01184 -24.794006 26.066101 -34.596558 31.279358c-9.802612 5.213196 -18.74115 8.50592 -24.218872 0c-5.477783 -8.50592 6.6327515 -34.02368 -8.647583 -51.035522c-15.280334 -17.01184 -58.52765 -37.59076 -83.03436 -51.035522c-24.506714 -13.444702 -49.87903 -12.346436 -64.00592 -29.63269c-14.126892 -17.286285 -7.781433 -67.49951 -20.755371 -74.0849c-12.973999 -6.585388 -40.654785 16.188538 -57.0885 34.57254c-16.433777 18.384003 -32.8649 101.249725 -41.514038 75.731476c-8.649139 -25.51825 -38.635193 -199.20676 -10.380859 -228.841z" fill-rule="evenodd"/><path fill="#8e7cc3" d="m243.12532 476.0834c-23.353271 20.578949 -34.309814 35.670746 -25.94902 37.865692c8.360779 2.1950073 42.957916 -5.7630615 76.11377 -24.695923c33.155853 -18.932861 112.15372 -72.43826 122.82138 -88.901245c10.667664 -16.462982 -29.984467 -22.498474 -58.81546 -9.876587c-28.831024 12.621918 -90.81738 65.02908 -114.17067 85.60806z" fill-rule="evenodd"/><path fill="#d9d2e9" d="m246.0784 485.55197c-33.73204 -6.310974 -57.08322 -76.55426 -62.2726 -128.41357c-5.189377 -51.859314 22.487152 -178.07741 31.136307 -182.74226c8.649139 -4.664871 -7.784088 117.98509 20.758575 154.7531c28.542664 36.768005 148.76779 39.78778 150.4974 65.85489c1.7296143 26.067139 -106.387634 96.858795 -140.11969 90.54785z" fill-rule="evenodd"/><path fill="#8e7cc3" d="m716.8748 462.00433c23.353333 20.578949 34.309814 35.670776 25.949036 37.865723c-8.360779 2.1949768 -42.957886 -5.763092 -76.11377 -24.695953c-33.155823 -18.932861 -112.15375 -72.43826 -122.82135 -88.901245c-10.667664 -16.462952 29.984436 -22.498474 58.81543 -9.876556c28.831055 12.621887 90.81738 65.02905 114.170654 85.60803z" fill-rule="evenodd"/><path fill="#d9d2e9" d="m713.92175 471.4729c33.732056 -6.3109436 57.083252 -76.55426 62.272583 -128.41357c5.189392 -51.859314 -22.487122 -178.07741 -31.136292 -182.74226c-8.649109 -4.664856 7.7841187 117.98512 -20.758545 154.7531c-28.542664 36.768005 -148.76782 39.78778 -150.49744 65.85489c-1.7296143 26.067139 106.387634 96.858795 140.11969 90.54785z" fill-rule="evenodd"/></g></svg>